<svg viewBox="0 0 1319 1024" 
  xmlns="http://www.w3.org/2000/svg" width="128" height="128">
  <path fill="#989898" d="M295.264 131.926c-62.822 25.13-113.08 56.54-150.773 100.516s-56.54 87.95-56.54 138.208c0 37.694 12.564 75.387 37.693 113.08 25.129 37.693 62.822 69.104 106.798 94.233l69.104 37.693-25.129 62.823c18.847-12.565 31.411-18.847 43.976-25.13l31.41-25.128 37.694 6.282c37.693 6.282 75.386 12.564 106.797 12.564 75.387 0 138.21-12.564 201.031-37.693 62.822-25.129 113.08-56.54 150.773-100.515 37.693-43.976 56.54-87.951 56.54-138.209s-18.847-94.233-56.54-138.208c-37.693-43.976-87.95-75.387-150.773-100.516-62.822-25.128-131.926-37.693-201.03-37.693s-131.927 12.565-201.031 37.693zM753.865 56.54c75.387 31.41 138.209 75.386 182.184 131.926 43.976 56.54 69.104 119.362 69.104 182.184s-25.128 125.644-69.104 182.184c-43.975 56.54-106.797 100.516-182.184 131.927s-163.337 50.257-251.288 50.257c-43.976 0-125.644-12.564-125.644-12.564s-169.62 43.975-194.749 43.975-25.129-6.282-18.847-25.128c6.283-18.847 43.976-75.387 43.976-75.387 6.282-6.282-119.362-94.233-157.055-144.49C18.847 471.165 0 420.907 0 364.367c0-69.104 25.129-125.644 69.104-182.184 43.976-56.54 106.798-100.515 182.184-131.926S414.626 0 502.577 0s175.902 18.847 251.288 56.54z m351.804 816.687c6.282 12.564 12.564 18.847 18.846 25.129l18.847 18.846 18.847 18.847 18.846 18.847v6.282c0 6.282 0 0 6.282 6.282v37.693c0 6.283-6.282 12.565-6.282 12.565-6.282 6.282-12.564 6.282-12.564 6.282-25.129-6.282-43.976-6.282-62.822-12.564-75.387-18.847-138.209-50.258-201.031-94.234-43.975 6.283-81.669 12.565-125.644 12.565-131.927 0-238.724-31.411-339.24-94.233h62.823c75.386 0 150.773-12.565 219.877-31.411S854.38 753.865 910.92 709.89c56.54-43.976 106.798-94.234 138.209-150.773s50.258-119.362 50.258-182.184c0-37.694-6.283-75.387-18.847-106.798 62.822 31.411 106.797 75.386 144.49 125.644 37.694 50.258 56.54 106.798 56.54 163.338 0 56.54-18.846 113.08-50.257 163.337s-81.669 94.233-138.209 125.644l12.565 25.129z"></path>
</svg>