<svg viewBox="0 0 1024 1024" 
  xmlns="http://www.w3.org/2000/svg" width="128" height="128">
  <path fill="#989898" d="M170.667 384h170.666A42.667 42.667 0 0 0 384 341.333V170.667A42.667 42.667 0 0 0 341.333 128H170.667A42.667 42.667 0 0 0 128 170.667v170.666A42.667 42.667 0 0 0 170.667 384z m42.666-170.667h85.334v85.334h-85.334z m-64 341.334H192a21.333 21.333 0 0 0 21.333-21.334v-42.666A21.333 21.333 0 0 0 192 469.333h-42.667A21.333 21.333 0 0 0 128 490.667v42.666a21.333 21.333 0 0 0 21.333 21.334z m192 85.333H170.667A42.667 42.667 0 0 0 128 682.667v170.666A42.667 42.667 0 0 0 170.667 896h170.666A42.667 42.667 0 0 0 384 853.333V682.667A42.667 42.667 0 0 0 341.333 640z m-42.666 170.667h-85.334v-85.334h85.334z m448 85.333h128A21.333 21.333 0 0 0 896 874.667v-128a21.333 21.333 0 0 0-21.333-21.334H832a21.333 21.333 0 0 0-21.333 21.334v64h-85.334v64A21.333 21.333 0 0 0 746.667 896z m106.666-768H682.667A42.667 42.667 0 0 0 640 170.667v170.666A42.667 42.667 0 0 0 682.667 384h170.666A42.667 42.667 0 0 0 896 341.333V170.667A42.667 42.667 0 0 0 853.333 128z m-42.666 170.667h-85.334v-85.334h85.334zM320 469.333a21.333 21.333 0 0 0-21.333 21.334v42.666A21.333 21.333 0 0 0 320 554.667h149.333v-85.334z m149.333 149.334A21.333 21.333 0 0 0 490.667 640h64v64A21.333 21.333 0 0 0 576 725.333h64V554.667H469.333z m0 213.333v42.667A21.333 21.333 0 0 0 490.667 896h128A21.333 21.333 0 0 0 640 874.667v-64H490.667A21.333 21.333 0 0 0 469.333 832z m405.334-362.667H661.333A21.333 21.333 0 0 0 640 490.667v64h85.333v64A21.333 21.333 0 0 0 746.667 640h42.666a21.333 21.333 0 0 0 21.334-21.333v-64h64A21.333 21.333 0 0 0 896 533.333v-42.666a21.333 21.333 0 0 0-21.333-21.334zM725.333 810.667v-85.334H640v85.334z m-234.666-512h42.666a21.333 21.333 0 0 0 21.334-21.334v-128A21.333 21.333 0 0 0 533.333 128h-42.666a21.333 21.333 0 0 0-21.334 21.333v128a21.333 21.333 0 0 0 21.334 21.334z m64 149.333v-42.667A21.333 21.333 0 0 0 533.333 384h-42.666a21.333 21.333 0 0 0-21.334 21.333v64h64A21.333 21.333 0 0 0 554.667 448z"></path>
</svg>