<svg viewBox="0 0 1170 1024" version="1.1" 
  xmlns="http://www.w3.org/2000/svg" width="128" height="128">
  <path fill="#989898" d="M1118.061714 438.857143H52.175238C23.405714 438.857143 0 460.702476 0 487.619048s23.405714 48.761905 52.224 48.761904H1118.110476C1146.88 536.380952 1170.285714 514.535619 1170.285714 487.619048s-23.405714-48.761905-52.224-48.761905m-49.737143 243.809524a53.150476 53.150476 0 0 0-53.150476 53.150476v90.404571c0 50.371048-40.96 91.477333-91.428571 91.477334H833.340952a53.150476 53.150476 0 1 0 0 106.300952h90.35581A198.022095 198.022095 0 0 0 1121.52381 826.221714V735.817143A53.150476 53.150476 0 0 0 1068.373333 682.666667m-731.428571 235.032381H246.491429a91.526095 91.526095 0 0 1-91.428572-91.477334V735.817143a53.150476 53.150476 0 1 0-106.349714 0v90.404571A198.022095 198.022095 0 0 0 246.54019 1024H336.944762a53.150476 53.150476 0 1 0 0-106.300952M101.912381 341.333333a53.150476 53.150476 0 0 0 53.150476-53.150476V197.827048c0-50.468571 41.057524-91.477333 91.477333-91.477334H336.944762A53.150476 53.150476 0 0 0 336.944762 0H246.54019A197.973333 197.973333 0 0 0 48.761905 197.827048V288.182857C48.761905 317.586286 72.557714 341.333333 101.912381 341.333333m731.428571-234.983619h90.404572c50.41981 0 91.428571 40.96 91.428571 91.477334v90.307047a53.150476 53.150476 0 1 0 106.349715 0V197.827048A197.973333 197.973333 0 0 0 923.745524 0H833.340952a53.150476 53.150476 0 1 0 0 106.349714"></path>
</svg>