<svg height="16" width="16" fill="#FF628C" viewBox="0 0 26 26" xmlns="http://www.w3.org/2000/svg">
  <path d="m7 0c-.550781 0-1 .449219-1 1v3c0 .550781.449219 1 1 1s1-.449219 1-1v-3c0-.550781-.449219-1-1-1zm12 0c-.550781 0-1 .449219-1 1v3c0 .550781.449219 1 1 1s1-.449219 1-1v-3c0-.550781-.449219-1-1-1zm-16 2c-1.65625 0-3 1.34375-3 3v18c0 1.65625 1.34375 3 3 3h20c1.65625 0 3-1.34375 3-3v-18c0-1.65625-1.34375-3-3-3h-2v2c0 1.105469-.894531 2-2 2s-2-.894531-2-2v-2h-8v2c0 1.105469-.894531 2-2 2s-2-.894531-2-2v-2zm-1 7h22v14c0 .550781-.449219 1-1 1h-20c-.550781 0-1-.449219-1-1zm7 3v2.3125h4.8125l-3.78125 7.65625h3.46875l3.46875-8.4375v-1.53125z"/>
</svg>