<svg height="16" width="16" viewBox="0 0 26 26" fill="#ffb238" xmlns="http://www.w3.org/2000/svg">
  <path d="m3 3c-1.65625 0-3 1.34375-3 3v14c0 1.035156.542969 1.933594 1.34375 2.46875.125.082031.238281.15625.375.21875.039063.023438.082031.042969.125.0625.347656.160156.726563.25 1.125.25h16c1.601563 0 3.097656-.964844 3.71875-2.4375v-.03125l3.09375-8.3125v-.03125c.296875-.730469.304688-1.578125-.125-2.21875-.433594-.652344-1.230469-.96875-2.03125-.96875h-1.625c0-1.65625-1.34375-3-3-3h-8c0-1.65625-1.34375-3-3-3zm4.625 8h16c.304688 0 .367188.082031.375.09375.007813.011719.054688.066406-.0625.34375v.0625l-3.09375 8.28125-.03125.03125c-.257812.546875-1.246094 1.1875-1.84375 1.1875h-16c-.304687 0-.335937-.082031-.34375-.09375-.007812-.011719-.054687-.066406.0625-.34375v-.03125l3.09375-8.3125c.003906-.011719.027344-.019531.03125-.03125.257813-.546875 1.214844-1.1875 1.8125-1.1875z"/>
</svg>