<svg height="16" width="16" viewBox="0 0 24 24" fill="#9e6100" xmlns="http://www.w3.org/2000/svg">
  <path clip-rule="evenodd" d="m12 0c-6.625 0-11.997 5.373-11.997 12s5.372 12 11.997 12c6.626 0 11.997-5.373 11.997-12s-5.371-12-11.997-12zm4.412 16.709-.35.35c-.291.291-.782.305-1.088.029l-4.52-3.955c-.308-.275-.541-.838-.521-1.25l.419-7.134c.022-.413.377-.749.79-.749h.493c.413 0 .767.336.787.748l.343 5.934c.021.413.262 1 .535 1.309l3.144 3.628c.273.309.26.799-.032 1.09z" fill-rule="evenodd"/>
</svg>